<?xml version="1.0" encoding="utf-8"?>
<svg xmlns="http://www.w3.org/2000/svg" viewBox="0 0 500 500">
  <g transform="matrix(0.055421, 0, 0, -0.055347, 6.991761, 453.123993)" fill="#000000" stroke="none" style="">
    <path d="M4073 7399 c-39 -11 -73 -57 -73 -97 0 -17 9 -51 20 -77 23 -54 31 -48 -105 -71 -193 -32 -385 -96 -595 -200 -602 -299 -1042 -842 -1206 -1490 -51 -202 -67 -340 -68 -569 0 -227 15 -356 69 -571 105 -414 358 -836 670 -1114 39 -35 89 -80 113 -102 l42 -39 0 -152 c0 -84 -4 -158 -9 -165 -4 -8 -44 -24 -87 -36 l-79 -22 -72 -140 c-93 -180 -109 -225 -93 -265 25 -60 21 -59 416 -59 l362 0 26 31 c25 30 26 34 28 192 2 89 3 199 3 245 0 45 2 82 3 82 2 0 71 -23 153 -51 l149 -52 0 -176 c0 -157 2 -179 20 -208 41 -68 15 -65 577 -64 566 2 549 0 585 71 15 29 18 63 18 206 l0 171 133 47 c72 26 140 50 149 53 15 4 17 -17 20 -241 l3 -246 33 -32 33 -33 357 3 357 3 30 29 c21 21 29 39 29 63 0 42 -154 361 -181 375 -10 5 -44 14 -76 21 -87 19 -87 18 -87 198 l0 156 47 41 c197 171 344 334 464 515 227 341 346 695 380 1122 23 293 -26 645 -131 929 -42 117 -145 326 -213 437 -283 455 -737 806 -1262 974 -96 31 -310 79 -350 79 -35 0 -38 14 -15 59 24 47 25 82 5 120 -28 56 -58 61 -322 60 -131 0 -252 -5 -270 -10z m209 -695 c4 -79 18 -104 58 -104 40 0 54 25 58 104 3 62 7 76 21 76 28 0 268 -30 308 -38 l38 -8 3 -614 c1 -446 5 -617 14 -627 18 -22 71 -12 85 17 10 19 13 160 13 608 l0 582 28 -6 c27 -7 144 -51 195 -75 l27 -12 0 -1709 0 -1709 -52 -23 c-162 -72 -398 -128 -605 -145 -274 -22 -625 36 -868 144 l-52 22 -5 649 c-3 357 -4 951 -2 1319 2 369 4 846 4 1061 l0 391 60 27 c62 28 167 66 182 66 4 0 8 -267 8 -594 0 -527 2 -596 16 -610 18 -19 70 -21 81 -3 4 6 10 289 13 627 l5 615 70 13 c85 15 195 29 251 31 l42 1 4 -76z m-852 -1810 l0 -1646 -37 23 c-67 40 -203 132 -209 140 -3 5 -5 674 -5 1486 1 1110 4 1479 13 1490 15 18 216 153 229 153 5 0 9 -617 9 -1646z m1879 1619 c25 -14 79 -50 119 -80 l72 -53 0 -1483 0 -1483 -27 -21 c-44 -32 -176 -119 -200 -132 l-23 -12 0 1646 c0 905 3 1645 7 1645 3 0 27 -12 52 -27z m-2243 -1615 c2 -797 0 -1369 -5 -1372 -10 -7 -140 129 -206 214 l-45 58 0 1100 0 1100 43 54 c64 83 190 219 200 215 4 -1 10 -617 13 -1369z m2645 1290 c41 -44 93 -106 117 -136 l42 -54 0 -1101 0 -1100 -74 -91 c-71 -87 -175 -195 -177 -186 -1 3 -3 623 -5 1378 -3 1122 -1 1372 10 1372 7 0 46 -37 87 -82z m-3011 -1296 c-1 -1004 4 -945 -62 -802 -83 181 -125 316 -158 519 -19 117 -22 160 -17 335 5 229 24 344 87 536 42 130 131 330 143 323 4 -2 7 -412 7 -911z m3355 780 c124 -283 172 -532 162 -836 -10 -296 -57 -483 -198 -793 -13 -29 -27 -53 -31 -53 -5 0 -8 411 -8 913 1 787 3 909 15 893 7 -10 35 -66 60 -124z" style="fill: rgb(139, 0, 0);"/>
    <path d="M4148 6479 c-15 -8 -18 -24 -18 -88 0 -54 4 -80 13 -83 6 -3 100 -5 207 -4 l195 1 3 80 c2 66 0 82 -14 92 -22 16 -360 18 -386 2z" style="fill: rgb(139, 0, 0);"/>
    <path d="M4128 5813 l-3 -348 -28 -59 c-21 -46 -54 -86 -141 -170 -100 -98 -118 -121 -154 -196 -22 -47 -45 -112 -51 -144 -7 -39 -11 -329 -11 -836 l0 -777 88 -26 c329 -97 658 -101 982 -11 52 15 103 31 113 36 16 8 17 55 17 781 0 858 0 848 -67 986 -31 63 -55 94 -149 186 -87 85 -120 124 -141 170 l-28 60 -3 348 -3 347 -209 0 -209 0 -3 -347z m332 -1728 c108 -37 197 -137 226 -258 15 -59 15 -78 5 -135 -33 -181 -172 -296 -356 -296 -65 0 -90 4 -137 26 -79 37 -142 98 -181 177 -29 59 -32 75 -32 151 0 71 5 94 26 140 85 178 265 256 449 195z" style="fill: rgb(139, 0, 0);"/>
    <path d="M4202 4001 c-27 -17 -9 -46 36 -55 40 -9 42 -12 42 -46 0 -25 -7 -43 -21 -56 -55 -49 -57 -134 -4 -184 22 -20 25 -32 25 -87 0 -67 20 -103 58 -103 40 0 56 25 60 96 4 58 9 74 33 102 24 27 29 42 29 82 0 41 -5 55 -30 83 -22 25 -30 45 -30 71 0 33 2 36 28 36 37 0 65 21 60 46 -3 17 -14 19 -138 22 -74 1 -141 -2 -148 -7z" style="fill: rgb(139, 0, 0);"/>
    <path d="M257 1702 c-16 -17 -17 -86 -17 -780 0 -749 0 -762 20 -782 19 -19 33 -20 356 -20 212 0 342 4 355 10 17 10 19 22 19 118 0 71 -4 112 -12 120 -9 9 -74 12 -230 12 l-218 0 0 210 0 210 178 0 c125 0 182 4 190 12 8 8 12 50 12 125 0 101 -2 113 -19 123 -12 6 -92 10 -190 10 l-171 0 0 195 0 195 228 2 227 3 3 114 c2 75 -1 118 -9 127 -9 11 -74 14 -359 14 -323 0 -348 -1 -363 -18z" style="fill: rgb(139, 0, 0);"/>
    <path d="M1192 1708 c-9 -9 -12 -197 -12 -784 0 -689 2 -774 16 -788 13 -14 59 -16 349 -16 290 0 336 2 349 16 20 20 23 213 4 232 -9 9 -72 12 -220 12 l-208 0 0 653 c0 621 -1 655 -18 670 -15 14 -41 17 -133 17 -76 0 -119 -4 -127 -12z" style="fill: rgb(139, 0, 0);"/>
    <path d="M2082 1708 c-17 -17 -17 -1559 0 -1576 17 -17 239 -17 256 0 9 9 12 198 12 790 0 758 0 778 -19 788 -28 14 -234 13 -249 -2z" style="fill: rgb(139, 0, 0);"/>
    <path d="M2538 1709 c-10 -5 -18 -16 -18 -24 0 -8 66 -166 146 -352 81 -186 151 -350 157 -364 9 -23 -10 -72 -161 -415 -95 -214 -172 -395 -172 -401 0 -26 42 -35 156 -31 98 3 116 6 132 23 20 21 197 457 208 513 4 18 9 32 13 32 3 0 14 -24 23 -54 45 -141 182 -473 203 -493 22 -19 36 -21 140 -22 127 -1 160 8 153 42 -3 12 -80 194 -172 404 l-168 381 156 357 c86 196 156 365 156 376 0 10 -9 23 -19 29 -29 15 -233 13 -254 -2 -16 -12 -197 -487 -197 -517 0 -34 -21 16 -104 249 -54 149 -96 252 -108 263 -17 14 -40 17 -137 17 -64 0 -124 -5 -133 -11z" style="fill: rgb(139, 0, 0);"/>
    <path d="M3714 1712 c-33 -21 -34 -47 -29 -803 l5 -754 21 -17 c29 -24 203 -26 237 -2 l22 15 0 769 0 769 -22 15 c-17 12 -48 16 -123 16 -55 0 -105 -4 -111 -8z" style="fill: rgb(139, 0, 0);"/>
    <path d="M4217 1702 c-16 -17 -17 -86 -17 -790 0 -752 0 -772 19 -782 28 -14 234 -13 249 2 9 9 12 90 12 303 0 161 2 294 4 296 2 2 37 3 78 1 l73 -3 90 -257 c110 -314 117 -330 150 -342 34 -13 206 -13 239 0 15 5 26 17 26 27 0 10 -52 153 -115 318 -104 272 -113 301 -97 310 39 23 116 111 138 159 33 73 44 140 44 275 0 173 -35 283 -120 375 -96 104 -185 126 -516 126 -221 0 -242 -2 -257 -18z m519 -258 c53 -39 66 -68 77 -163 8 -65 7 -108 -1 -151 -22 -121 -78 -159 -234 -160 l-98 0 0 251 0 251 114 -4 c97 -2 119 -6 142 -24z" style="fill: rgb(139, 0, 0);"/>
    <path d="M5338 1709 c-17 -9 -18 -58 -18 -789 0 -760 0 -780 19 -790 13 -6 143 -10 354 -10 398 0 367 -11 367 132 0 134 12 128 -243 128 l-207 0 0 648 c0 570 -2 650 -16 670 -14 21 -23 22 -127 22 -62 0 -120 -5 -129 -11z" style="fill: rgb(139, 0, 0);"/>
    <path d="M6242 1708 c-17 -17 -17 -1559 0 -1576 15 -15 221 -16 249 -2 19 10 19 30 19 788 0 592 -3 781 -12 790 -8 8 -51 12 -128 12 -77 0 -120 -4 -128 -12z" style="fill: rgb(139, 0, 0);"/>
    <path d="M6747 1702 c-16 -17 -17 -86 -17 -785 l0 -766 22 -15 c34 -24 220 -23 244 1 16 16 17 51 11 503 l-7 485 176 -470 c211 -567 188 -513 220 -525 43 -17 216 -13 242 6 l22 15 0 763 0 763 -23 21 c-21 20 -34 22 -122 22 -75 0 -102 -4 -116 -16 -16 -14 -17 -50 -13 -497 2 -265 1 -475 -2 -467 -3 8 -81 222 -172 475 -91 253 -175 470 -186 483 -18 21 -28 22 -141 22 -105 0 -124 -2 -138 -18z" style="fill: rgb(139, 0, 0);"/>
    <path d="M7890 1700 c-20 -20 -20 -30 -18 -786 3 -745 4 -766 22 -780 31 -22 692 -21 724 2 20 14 22 23 22 108 0 142 12 135 -253 138 l-218 3 0 205 0 205 176 5 c141 4 178 8 185 20 5 8 10 61 10 117 0 79 -3 105 -16 117 -13 13 -44 16 -187 16 l-172 0 2 192 2 193 214 3 c171 2 217 5 227 17 6 7 14 56 17 108 9 147 36 137 -377 137 -328 0 -341 -1 -360 -20z" style="fill: rgb(139, 0, 0);"/>
  </g>
  <rect x="737.179" y="86.627" width="0.801" height="0.801" style="fill: rgb(216, 216, 216); stroke: rgb(0, 0, 0);"/>
</svg>